<svg width="100" height="50" viewBox="0 0 600 150" fill="none" xmlns="http://www.w3.org/2000/svg">
<path fill-rule="evenodd" clip-rule="evenodd" d="M458.546 0H600V150H458.546V0ZM530.452 67.1636C526.415 67.1636 523.05 65.7365 520.358 62.8822C517.763 60.028 516.465 56.5112 516.465 52.3318C516.465 48.1524 517.763 44.6355 520.358 41.7813C523.05 38.9271 526.415 37.5 530.452 37.5C534.394 37.5 537.662 38.9271 540.258 41.7813C542.95 44.6355 544.295 48.1524 544.295 52.3318C544.295 56.5112 542.95 60.028 540.258 62.8822C537.662 65.7365 534.394 67.1636 530.452 67.1636ZM533.26 78.6137C537.398 79.5462 540.416 81.894 542.315 85.657C544.309 89.4411 544.716 94.2746 543.537 100.157C541.218 111.724 535.297 120.915 525.774 127.731C524.064 128.908 522.268 129.285 520.387 128.861C518.507 128.437 517.001 127.369 515.87 125.655C514.72 124.041 514.314 122.386 514.654 120.691C514.974 119.096 515.875 117.788 517.357 116.767C521.388 113.819 524.444 110.34 526.526 106.328C523.013 105.223 520.367 103.22 518.59 100.318C516.833 97.317 516.334 93.9219 517.094 90.1329C517.913 86.0448 519.872 82.891 522.971 80.6714C526.069 78.4518 529.499 77.7659 533.26 78.6137ZM174.721 52.25C170.792 52.25 168.041 51.4167 166.47 49.75C164.977 48 164.23 45.9167 164.23 43.5V39.875C164.23 37.375 164.977 35.2917 166.47 33.625C168.041 31.9584 170.792 31.125 174.721 31.125C178.65 31.125 181.362 31.9584 182.855 33.625C184.426 35.2917 185.212 37.375 185.212 39.875V43.5C185.212 45.9167 184.426 48 182.855 49.75C181.362 51.4167 178.65 52.25 174.721 52.25ZM146.666 110.625H165.998V74.875H146.666V60.5H183.444V110.625H201.362V125H146.666V110.625ZM11.1984 123.25C16.2279 125.417 22.1218 126.5 28.8801 126.5C37.9175 126.5 44.8723 124.542 49.7446 120.625C54.6955 116.708 57.1709 111.375 57.1709 104.625C57.1709 101.542 56.6601 98.9167 55.6385 96.75C54.6169 94.5834 53.2023 92.75 51.3949 91.25C49.666 89.75 47.6228 88.5834 45.2652 87.75C42.9076 86.8334 40.3536 86.1667 37.6031 85.75L27.9371 84.125C25.5796 83.7084 23.7328 83.1667 22.3968 82.5C21.0609 81.75 20.3929 80.4167 20.3929 78.5C20.3929 74.1667 23.7721 72 30.5304 72C34.5383 72 37.9568 72.7084 40.7858 74.125C43.6149 75.5417 45.9332 77.2917 47.7406 79.375L56.4636 68.875C53.9489 65.7084 50.5697 63.2917 46.3261 61.625C42.1611 59.875 37.0923 59 31.1198 59C22.3183 59 15.4813 60.9167 10.609 64.75C5.73674 68.5834 3.30059 73.875 3.30059 80.625C3.30059 83.7084 3.81139 86.3334 4.833 88.5C5.85461 90.6667 7.22986 92.5 8.95874 94C10.6876 95.5 12.7308 96.7084 15.0884 97.625C17.446 98.4584 20 99.0834 22.7505 99.5L32.5344 101.125C34.8919 101.542 36.7387 102.125 38.0746 102.875C39.4106 103.542 40.0786 104.792 40.0786 106.625C40.0786 108.958 39.0963 110.708 37.1316 111.875C35.167 112.958 32.4558 113.5 28.998 113.5C24.9116 113.5 21.2574 112.75 18.0354 111.25C14.8919 109.667 12.1414 107.5 9.78388 104.75L0 114.375C2.51473 118.125 6.24754 121.083 11.1984 123.25ZM89.3056 60.5H71.8596V150H89.3056V113.25H90.1307C91.6239 117.167 93.785 120.375 96.614 122.875C99.4431 125.292 103.294 126.5 108.166 126.5C111.545 126.5 114.61 125.833 117.361 124.5C120.19 123.167 122.587 121.125 124.551 118.375C126.594 115.625 128.166 112.125 129.266 107.875C130.445 103.625 131.034 98.5834 131.034 92.75C131.034 86.9167 130.445 81.875 129.266 77.625C128.166 73.375 126.594 69.875 124.551 67.125C122.587 64.375 120.19 62.3334 117.361 61C114.61 59.6667 111.545 59 108.166 59C103.294 59 99.4431 60.25 96.614 62.75C93.785 65.25 91.6239 68.4167 90.1307 72.25H89.3056V60.5ZM109.699 108.375C107.577 110.875 104.551 112.125 100.622 112.125C97.557 112.125 94.8851 111.333 92.6062 109.75C90.4058 108.167 89.3056 105.667 89.3056 102.25V83.25C89.3056 79.8334 90.4058 77.3334 92.6062 75.75C94.8851 74.1667 97.557 73.375 100.622 73.375C104.551 73.375 107.577 74.6667 109.699 77.25C111.82 79.75 112.881 83.25 112.881 87.75V97.75C112.881 102.25 111.82 105.792 109.699 108.375ZM231.375 32.5H213.929V125H231.375V102.625L237.151 96.5L254.832 125H275.579L249.528 86L273.103 60.5H253.064L240.333 74.875L232.2 85H231.375V32.5ZM313.961 126.5C303.745 126.5 296.004 123.5 290.739 117.5C285.474 111.5 282.841 103.333 282.841 93C282.841 87.75 283.509 83.0417 284.845 78.875C286.26 74.625 288.224 71.0417 290.739 68.125C293.332 65.125 296.436 62.875 300.051 61.375C303.745 59.7917 307.871 59 312.429 59C316.987 59 321.073 59.7917 324.688 61.375C328.303 62.875 331.368 65.0417 333.882 67.875C336.397 70.7084 338.323 74.1667 339.658 78.25C341.073 82.25 341.78 86.75 341.78 91.75V97.25H300.169V98.375C300.169 102.542 301.387 105.917 303.824 108.5C306.26 111 309.835 112.25 314.55 112.25C318.165 112.25 321.269 111.542 323.863 110.125C326.456 108.625 328.696 106.667 330.582 104.25L340.012 115.125C337.655 118.208 334.354 120.875 330.11 123.125C325.867 125.375 320.484 126.5 313.961 126.5ZM312.547 72.25C308.774 72.25 305.749 73.5 303.47 76C301.27 78.4167 300.169 81.7084 300.169 85.875V86.875H324.688V85.875C324.688 81.625 323.588 78.2917 321.387 75.875C319.266 73.4584 316.319 72.25 312.547 72.25ZM393.129 113.25H393.954V125H411.4V32.5H393.954V72.25H393.129C392.343 70.3334 391.4 68.5834 390.3 67C389.278 65.3334 388.021 63.9167 386.528 62.75C385.113 61.5834 383.463 60.6667 381.577 60C379.691 59.3334 377.53 59 375.094 59C371.715 59 368.61 59.6667 365.781 61C363.031 62.3334 360.634 64.375 358.591 67.125C356.626 69.875 355.054 73.375 353.876 77.625C352.775 81.875 352.225 86.9167 352.225 92.75C352.225 98.5834 352.775 103.625 353.876 107.875C355.054 112.125 356.626 115.625 358.591 118.375C360.634 121.125 363.031 123.167 365.781 124.5C368.61 125.833 371.715 126.5 375.094 126.5C379.966 126.5 383.777 125.292 386.528 122.875C389.357 120.375 391.557 117.167 393.129 113.25ZM390.536 109.75C388.335 111.333 385.703 112.125 382.638 112.125C378.709 112.125 375.683 110.875 373.561 108.375C371.44 105.792 370.379 102.25 370.379 97.75V87.75C370.379 83.25 371.44 79.75 373.561 77.25C375.683 74.6667 378.709 73.375 382.638 73.375C385.703 73.375 388.335 74.1667 390.536 75.75C392.815 77.3334 393.954 79.8334 393.954 83.25V102.25C393.954 105.667 392.815 108.167 390.536 109.75Z" fill="#007BFF"/>
</svg>